<svg xmlns="http://www.w3.org/2000/svg" width="96" height="96" viewBox="0 0 96 96" fill="none">
  <defs>
    <linearGradient id="chart" x1="24" y1="70" x2="74" y2="25" gradientUnits="userSpaceOnUse">
      <stop stop-color="#7FF4D8"/>
      <stop offset=".5" stop-color="#86A8FF"/>
      <stop offset="1" stop-color="#FFE27B"/>
    </linearGradient>
    <linearGradient id="fill" x1="26" y1="31" x2="72" y2="73" gradientUnits="userSpaceOnUse">
      <stop stop-color="#86F5FF" stop-opacity=".32"/>
      <stop offset="1" stop-color="#FFE07A" stop-opacity=".05"/>
    </linearGradient>
    <filter id="glow" x="-20%" y="-20%" width="140%" height="140%" color-interpolation-filters="sRGB">
      <feDropShadow dx="0" dy="8" stdDeviation="5" flood-color="#031226" flood-opacity=".38"/>
      <feDropShadow dx="0" dy="0" stdDeviation="2" flood-color="#86F5FF" flood-opacity=".32"/>
    </filter>
  </defs>
  <g filter="url(#glow)" stroke-linecap="round" stroke-linejoin="round">
    <path d="M25 67c7-11 13-16 20-14 6 2 10 7 16 2 4-3 8-10 12-22v34H25z" fill="url(#fill)"/>
    <path d="M23 70h51" stroke="#F7FBFF" stroke-width="4" opacity=".78"/>
    <path d="M27 61c7-9 12-13 18-11 7 3 10 9 17 2 4-4 8-11 11-21" stroke="url(#chart)" stroke-width="7"/>
    <circle cx="45" cy="50" r="5" fill="#061633" stroke="#F7FBFF" stroke-width="3"/>
    <circle cx="73" cy="31" r="6" fill="#FFE07A" stroke="#F7FBFF" stroke-width="3"/>
  </g>
</svg>
